<svg viewBox="0 0 43 56" fill="none" xmlns="http://www.w3.org/2000/svg">
<path d="M30.485 0H1.463C0.655 0 0 0.655 0 1.926V55C0 55.345 0.655 56 1.463 56H41.537C42.345 56 43 55.345 43 55V12.978C43 12.282 42.907 12.058 42.743 11.893L31.107 0.257C30.942 0.093 30.718 0 30.485 0Z" fill="#E9E9E0"/>
<path d="M31 0.151001V12H42.849L31 0.151001Z" fill="#D9D7CA"/>
<path d="M41.537 56H1.463C0.655 56 0 55.345 0 54.537V39H43V54.537C43 55.345 42.345 56 41.537 56Z" fill="#D75E72"/>
<path d="M17 28V20.954V14L28 21L17 28Z" fill="#C8BDB8"/>
<path d="M18.7451 52L17.9072 49.5244H14.416L13.5781 52H12.0991L15.4062 42.8403H16.9424L20.2495 52H18.7451ZM16.1426 44.3638L14.7778 48.3818H17.5454L16.1807 44.3638H16.1426ZM24.5151 52H22.96L19.6909 42.8403H21.2334L23.728 50.4004H23.7661L26.2671 42.8403H27.7842L24.5151 52ZM30.2217 52H28.7998V42.8403H30.2217V52Z" fill="white"/>
</svg>
