<svg viewBox="0 0 43 56" fill="none" xmlns="http://www.w3.org/2000/svg">
<g clip-path="url(#clip0)">
<path d="M30 0H1C0.2 0 -0.5 0.7 -0.5 1.9V55C-0.5 55.3 0.2 56 1 56H41C41.8 56 42.5 55.3 42.5 55V13C42.5 12.3 42.4 12.1 42.2 11.9L30.6 0.3C30.4 0.1 30.2 0 30 0Z" fill="#E9E9E0"/>
<path d="M41 56H1C0.2 56 -0.5 55.3 -0.5 54.5V39H42.5V54.5C42.5 55.3 41.8 56 41 56Z" fill="#86659C"/>
<path d="M30.5 0.200012V12H42.3L30.5 0.200012Z" fill="#D9D7CA"/>
<path d="M11.9 19C14.4405 19 16.5 16.9405 16.5 14.4C16.5 11.8595 14.4405 9.79999 11.9 9.79999C9.35948 9.79999 7.29999 11.8595 7.29999 14.4C7.29999 16.9405 9.35948 19 11.9 19Z" fill="#F3D55B"/>
<path d="M-0.5 39H10.5H42.5V28L32.5 18.5L22 30L16.5 24.5L-0.5 39Z" fill="#A378AB"/>
<path d="M8.11633 52V42.0469H11.5275C12.6531 42.0469 13.5099 42.2725 14.0978 42.7236C14.6857 43.1748 14.9796 43.847 14.9796 44.7402C14.9796 45.196 14.8566 45.6061 14.6105 45.9707C14.3644 46.3353 14.0043 46.6178 13.5304 46.8184C14.0682 46.9642 14.4829 47.2399 14.7745 47.6455C15.0708 48.0465 15.2189 48.5296 15.2189 49.0947C15.2189 50.029 14.9181 50.7467 14.3165 51.248C13.7195 51.7493 12.8627 52 11.7462 52H8.11633ZM9.84582 47.5088V50.6191H11.7667C12.309 50.6191 12.7329 50.4847 13.0382 50.2158C13.3435 49.9469 13.4962 49.5732 13.4962 49.0947C13.4962 48.0602 12.9676 47.5316 11.9103 47.5088H9.84582ZM9.84582 46.2373H11.5411C12.0789 46.2373 12.4982 46.1165 12.7989 45.875C13.1043 45.6289 13.257 45.2826 13.257 44.8359C13.257 44.3438 13.1157 43.9883 12.8331 43.7695C12.5551 43.5508 12.1199 43.4414 11.5275 43.4414H9.84582V46.2373ZM18.7705 42.0469L21.6416 49.6758L24.5059 42.0469H26.7413V52H25.0186V48.7188L25.1895 44.3301L22.25 52H21.0127L18.0801 44.3369L18.251 48.7188V52H16.5284V42.0469H18.7705ZM30.1015 48.3018V52H28.372V42.0469H32.1796C33.2916 42.0469 34.1735 42.3363 34.8252 42.915C35.4814 43.4938 35.8095 44.2594 35.8095 45.2119C35.8095 46.1872 35.4882 46.946 34.8457 47.4883C34.2076 48.0306 33.3121 48.3018 32.1591 48.3018H30.1015ZM30.1015 46.9141H32.1796C32.7949 46.9141 33.2643 46.7705 33.5879 46.4834C33.9114 46.1917 34.0732 45.7725 34.0732 45.2256C34.0732 44.6878 33.9091 44.2594 33.581 43.9404C33.2529 43.6169 32.8017 43.4505 32.2275 43.4414H30.1015V46.9141Z" fill="white"/>
</g>
<defs>
<clipPath id="clip0">
<rect width="43" height="56" fill="white"/>
</clipPath>
</defs>
</svg>
