<svg width="43" height="56" viewBox="0 0 43 56" fill="none" xmlns="http://www.w3.org/2000/svg">
<path d="M30.485 0H1.463C0.655 0 0 0.655 0 1.926V55C0 55.345 0.655 56 1.463 56H41.537C42.345 56 43 55.345 43 55V12.978C43 12.282 42.907 12.058 42.743 11.893L31.107 0.257C30.942 0.093 30.718 0 30.485 0Z" fill="#E9E9E0"/>
<path d="M31 0.151001V12H42.849L31 0.151001Z" fill="#D9D7CA"/>
<path d="M41.537 56H1.463C0.655 56 0 55.345 0 54.537V39H43V54.537C43 55.345 42.345 56 41.537 56Z" fill="#6FB982"/>
<path d="M17 16V12H5V16V18V20V22V24V26V28V30V34H15H17H38V30V28V26V24V22V20V16H17ZM7 14H15V16H7V14ZM7 18H15V20H7V18ZM7 22H15V24H7V22ZM7 26H15V28H7V26ZM15 32H7V30H15V32ZM36 32H17V30H36V32ZM36 28H17V26H36V28ZM36 24H17V22H36V24ZM17 20V18H36V20H17Z" fill="#C8BDB8"/>
<path d="M16.3442 48.9912C16.2511 49.9772 15.8872 50.7474 15.2524 51.3018C14.6177 51.8519 13.7734 52.127 12.7197 52.127C11.9834 52.127 11.3338 51.9535 10.771 51.6064C10.2124 51.2552 9.78076 50.758 9.47607 50.1147C9.17139 49.4715 9.0127 48.7246 9 47.874V47.0107C9 46.139 9.15446 45.3709 9.46338 44.7065C9.7723 44.0422 10.2145 43.5301 10.79 43.1704C11.3698 42.8107 12.0384 42.6309 12.7959 42.6309C13.8158 42.6309 14.6367 42.908 15.2588 43.4624C15.8809 44.0168 16.2427 44.7996 16.3442 45.811H14.7446C14.6685 45.1466 14.4738 44.6685 14.1606 44.3765C13.8517 44.0802 13.3968 43.9321 12.7959 43.9321C12.0977 43.9321 11.5602 44.1882 11.1836 44.7002C10.8112 45.208 10.6208 45.9549 10.6123 46.9409V47.7598C10.6123 48.7585 10.79 49.5202 11.1455 50.0449C11.5052 50.5697 12.0299 50.832 12.7197 50.832C13.3503 50.832 13.8242 50.6903 14.1416 50.4067C14.459 50.1232 14.66 49.6514 14.7446 48.9912H16.3442Z" fill="white"/>
<path d="M22.6157 49.6196C22.6157 49.2134 22.4718 48.9002 22.1841 48.6802C21.9006 48.4601 21.3864 48.238 20.6416 48.0137C19.8968 47.7894 19.3044 47.5397 18.8643 47.2646C18.0221 46.7357 17.6011 46.0459 17.6011 45.1953C17.6011 44.4505 17.9036 43.8369 18.5088 43.3545C19.1182 42.8721 19.9074 42.6309 20.8765 42.6309C21.5197 42.6309 22.0931 42.7493 22.5967 42.9863C23.1003 43.2233 23.4959 43.5618 23.7837 44.002C24.0715 44.4378 24.2153 44.9224 24.2153 45.4556H22.6157C22.6157 44.9731 22.4634 44.5965 22.1587 44.3257C21.8582 44.0506 21.4266 43.9131 20.8638 43.9131C20.339 43.9131 19.9307 44.0252 19.6387 44.2495C19.3509 44.4738 19.207 44.7869 19.207 45.189C19.207 45.5275 19.3636 45.811 19.6768 46.0396C19.9899 46.2638 20.5062 46.4839 21.2256 46.6997C21.945 46.9113 22.5226 47.1546 22.9585 47.4297C23.3944 47.7005 23.7139 48.0137 23.917 48.3691C24.1201 48.7204 24.2217 49.133 24.2217 49.6069C24.2217 50.3771 23.9255 50.9907 23.333 51.4478C22.7448 51.9006 21.945 52.127 20.9336 52.127C20.265 52.127 19.6493 52.0042 19.0864 51.7588C18.5278 51.5091 18.092 51.1663 17.7788 50.7305C17.4699 50.2946 17.3154 49.7868 17.3154 49.207H18.9214C18.9214 49.7318 19.0949 50.138 19.4419 50.4258C19.7889 50.7135 20.2861 50.8574 20.9336 50.8574C21.4922 50.8574 21.9111 50.7453 22.1904 50.521C22.474 50.2925 22.6157 49.992 22.6157 49.6196Z" fill="white"/>
<path d="M28.8872 49.9878L31.2358 42.7578H33.0005L29.6743 52H28.1191L24.8057 42.7578H26.564L28.8872 49.9878Z" fill="white"/>
</svg>
