<svg viewBox="0 0 43 56" fill="none" xmlns="http://www.w3.org/2000/svg">
<path d="M30.485 0H1.463C0.655 0 0 0.655 0 1.926V55C0 55.345 0.655 56 1.463 56H41.537C42.345 56 43 55.345 43 55V12.978C43 12.282 42.907 12.058 42.743 11.893L31.107 0.257C30.942 0.093 30.718 0 30.485 0Z" fill="#E9E9E0"/>
<path d="M31 0.151001V12H42.849L31 0.151001Z" fill="#D9D7CA"/>
<path d="M12 13H6C5.448 13 5 12.552 5 12C5 11.448 5.448 11 6 11H12C12.552 11 13 11.448 13 12C13 12.552 12.552 13 12 13Z" fill="#C8BDB8"/>
<path d="M15 18H6C5.448 18 5 17.552 5 17C5 16.448 5.448 16 6 16H15C15.552 16 16 16.448 16 17C16 17.552 15.552 18 15 18Z" fill="#C8BDB8"/>
<path d="M19 18C18.74 18 18.48 17.89 18.29 17.71C18.11 17.52 18 17.26 18 17C18 16.74 18.11 16.48 18.29 16.29C18.66 15.92 19.34 15.92 19.71 16.29C19.89 16.48 20 16.74 20 17C20 17.26 19.89 17.52 19.71 17.71C19.52 17.89 19.26 18 19 18Z" fill="#C8BDB8"/>
<path d="M31 18H23C22.448 18 22 17.552 22 17C22 16.448 22.448 16 23 16H31C31.552 16 32 16.448 32 17C32 17.552 31.552 18 31 18Z" fill="#C8BDB8"/>
<path d="M6 33C5.74 33 5.48 32.89 5.29 32.71C5.11 32.52 5 32.26 5 32C5 31.74 5.11 31.48 5.29 31.29C5.66 30.92 6.34 30.92 6.71 31.29C6.89 31.48 7 31.73 7 32C7 32.26 6.89 32.52 6.71 32.71C6.52 32.89 6.26 33 6 33Z" fill="#C8BDB8"/>
<path d="M18 33H10C9.448 33 9 32.552 9 32C9 31.448 9.448 31 10 31H18C18.552 31 19 31.448 19 32C19 32.552 18.552 33 18 33Z" fill="#C8BDB8"/>
<path d="M37 18H35C34.448 18 34 17.552 34 17C34 16.448 34.448 16 35 16H37C37.552 16 38 16.448 38 17C38 17.552 37.552 18 37 18Z" fill="#C8BDB8"/>
<path d="M28 23H6C5.448 23 5 22.552 5 22C5 21.448 5.448 21 6 21H28C28.552 21 29 21.448 29 22C29 22.552 28.552 23 28 23Z" fill="#C8BDB8"/>
<path d="M37 23H31C30.448 23 30 22.552 30 22C30 21.448 30.448 21 31 21H37C37.552 21 38 21.448 38 22C38 22.552 37.552 23 37 23Z" fill="#C8BDB8"/>
<path d="M10 28H6C5.448 28 5 27.552 5 27C5 26.448 5.448 26 6 26H10C10.552 26 11 26.448 11 27C11 27.552 10.552 28 10 28Z" fill="#C8BDB8"/>
<path d="M24 28H14C13.448 28 13 27.552 13 27C13 26.448 13.448 26 14 26H24C24.552 26 25 26.448 25 27C25 27.552 24.552 28 24 28Z" fill="#C8BDB8"/>
<path d="M37 28H28C27.448 28 27 27.552 27 27C27 26.448 27.448 26 28 26H37C37.552 26 38 26.448 38 27C38 27.552 37.552 28 37 28Z" fill="#C8BDB8"/>
<path d="M41.537 56H1.463C0.655 56 0 55.345 0 54.537V39H43V54.537C43 55.345 42.345 56 41.537 56Z" fill="#0096E6"/>
<path d="M8.53174 42.8403H11.8135C13.1803 42.8403 14.2446 43.2402 15.0063 44.04C15.7681 44.8398 16.1489 45.9613 16.1489 47.4043C16.1489 48.8516 15.7681 49.9793 15.0063 50.7876C14.2446 51.5959 13.1803 52 11.8135 52H8.53174V42.8403ZM9.95361 44.0654V50.7686H11.6802C12.6535 50.7686 13.4004 50.4808 13.9209 49.9053C14.4414 49.3255 14.7017 48.4961 14.7017 47.417C14.7017 46.3379 14.4414 45.5106 13.9209 44.9351C13.4004 44.3553 12.6535 44.0654 11.6802 44.0654H9.95361ZM21.4683 42.688C22.7843 42.688 23.8275 43.1133 24.5977 43.9639C25.3721 44.8145 25.7593 45.9676 25.7593 47.4233C25.7593 48.8791 25.3742 50.0322 24.604 50.8828C23.8338 51.7292 22.7886 52.1523 21.4683 52.1523C20.1479 52.1523 19.1027 51.7292 18.3325 50.8828C17.5623 50.0322 17.1772 48.8791 17.1772 47.4233C17.1772 45.9676 17.5623 44.8145 18.3325 43.9639C19.1027 43.1133 20.1479 42.688 21.4683 42.688ZM21.4683 43.9385C20.5965 43.9385 19.9046 44.2516 19.3926 44.8779C18.8848 45.5042 18.6309 46.3527 18.6309 47.4233C18.6309 48.4897 18.8848 49.3361 19.3926 49.9624C19.9046 50.5887 20.5965 50.9019 21.4683 50.9019C22.3358 50.9019 23.0234 50.5887 23.5312 49.9624C24.0433 49.3361 24.2993 48.4897 24.2993 47.4233C24.2993 46.3527 24.0433 45.5042 23.5312 44.8779C23.0234 44.2516 22.3358 43.9385 21.4683 43.9385ZM30.9834 52.1523C29.6969 52.1523 28.675 51.7271 27.9175 50.8765C27.1642 50.0259 26.7876 48.8727 26.7876 47.417C26.7876 45.9697 27.1663 44.8208 27.9238 43.9702C28.6813 43.1154 29.7012 42.688 30.9834 42.688C32.0244 42.688 32.9025 42.9821 33.6177 43.5703C34.3328 44.1543 34.7497 44.9224 34.8682 45.8745H33.459C33.332 45.2863 33.0422 44.8166 32.5894 44.4653C32.1408 44.1099 31.6055 43.9321 30.9834 43.9321C30.1497 43.9321 29.4832 44.2495 28.9839 44.8843C28.4888 45.5148 28.2412 46.359 28.2412 47.417C28.2412 48.4876 28.4888 49.3382 28.9839 49.9688C29.479 50.5951 30.1476 50.9082 30.9897 50.9082C31.6245 50.9082 32.1577 50.7537 32.5894 50.4448C33.0252 50.1359 33.3151 49.7043 33.459 49.1499H34.8745C34.701 50.0978 34.2715 50.8363 33.5859 51.3652C32.9046 51.89 32.0371 52.1523 30.9834 52.1523Z" fill="white"/>
</svg>
