<svg viewBox="0 0 43 56" fill="none" xmlns="http://www.w3.org/2000/svg">
<path d="M30.485 0H1.463C0.655 0 0 0.655 0 1.926V55C0 55.345 0.655 56 1.463 56H41.537C42.345 56 43 55.345 43 55V12.978C43 12.282 42.907 12.058 42.743 11.893L31.107 0.257C30.942 0.093 30.718 0 30.485 0Z" fill="#E9E9E0"/>
<path d="M31 0.151001V12H42.849L31 0.151001Z" fill="#D9D7CA"/>
<path d="M12 13H6C5.448 13 5 12.552 5 12C5 11.448 5.448 11 6 11H12C12.552 11 13 11.448 13 12C13 12.552 12.552 13 12 13Z" fill="#C8BDB8"/>
<path d="M15 18H6C5.448 18 5 17.552 5 17C5 16.448 5.448 16 6 16H15C15.552 16 16 16.448 16 17C16 17.552 15.552 18 15 18Z" fill="#C8BDB8"/>
<path d="M19 18C18.74 18 18.48 17.89 18.29 17.71C18.11 17.52 18 17.26 18 17C18 16.74 18.11 16.48 18.29 16.29C18.66 15.92 19.34 15.92 19.71 16.29C19.89 16.48 20 16.74 20 17C20 17.26 19.89 17.52 19.71 17.71C19.52 17.89 19.26 18 19 18Z" fill="#C8BDB8"/>
<path d="M31 18H23C22.448 18 22 17.552 22 17C22 16.448 22.448 16 23 16H31C31.552 16 32 16.448 32 17C32 17.552 31.552 18 31 18Z" fill="#C8BDB8"/>
<path d="M6 33C5.74 33 5.48 32.89 5.29 32.71C5.11 32.52 5 32.26 5 32C5 31.74 5.11 31.48 5.29 31.29C5.66 30.92 6.34 30.92 6.71 31.29C6.89 31.48 7 31.73 7 32C7 32.26 6.89 32.52 6.71 32.71C6.52 32.89 6.26 33 6 33Z" fill="#C8BDB8"/>
<path d="M18 33H10C9.448 33 9 32.552 9 32C9 31.448 9.448 31 10 31H18C18.552 31 19 31.448 19 32C19 32.552 18.552 33 18 33Z" fill="#C8BDB8"/>
<path d="M37 18H35C34.448 18 34 17.552 34 17C34 16.448 34.448 16 35 16H37C37.552 16 38 16.448 38 17C38 17.552 37.552 18 37 18Z" fill="#C8BDB8"/>
<path d="M28 23H6C5.448 23 5 22.552 5 22C5 21.448 5.448 21 6 21H28C28.552 21 29 21.448 29 22C29 22.552 28.552 23 28 23Z" fill="#C8BDB8"/>
<path d="M37 23H31C30.448 23 30 22.552 30 22C30 21.448 30.448 21 31 21H37C37.552 21 38 21.448 38 22C38 22.552 37.552 23 37 23Z" fill="#C8BDB8"/>
<path d="M10 28H6C5.448 28 5 27.552 5 27C5 26.448 5.448 26 6 26H10C10.552 26 11 26.448 11 27C11 27.552 10.552 28 10 28Z" fill="#C8BDB8"/>
<path d="M24 28H14C13.448 28 13 27.552 13 27C13 26.448 13.448 26 14 26H24C24.552 26 25 26.448 25 27C25 27.552 24.552 28 24 28Z" fill="#C8BDB8"/>
<path d="M37 28H28C27.448 28 27 27.552 27 27C27 26.448 27.448 26 28 26H37C37.552 26 38 26.448 38 27C38 27.552 37.552 28 37 28Z" fill="#C8BDB8"/>
<path d="M41.537 56H1.463C0.655 56 0 55.345 0 54.537V39H43V54.537C43 55.345 42.345 56 41.537 56Z" fill="#0096E6"/>
<path d="M4.47559 42.8403H7.75732C9.12419 42.8403 10.1885 43.2402 10.9502 44.04C11.7119 44.8398 12.0928 45.9613 12.0928 47.4043C12.0928 48.8516 11.7119 49.9793 10.9502 50.7876C10.1885 51.5959 9.12419 52 7.75732 52H4.47559V42.8403ZM5.89746 44.0654V50.7686H7.62402C8.59733 50.7686 9.34424 50.4808 9.86475 49.9053C10.3853 49.3255 10.6455 48.4961 10.6455 47.417C10.6455 46.3379 10.3853 45.5106 9.86475 44.9351C9.34424 44.3553 8.59733 44.0654 7.62402 44.0654H5.89746ZM17.4121 42.688C18.7282 42.688 19.7713 43.1133 20.5415 43.9639C21.3159 44.8145 21.7031 45.9676 21.7031 47.4233C21.7031 48.8791 21.318 50.0322 20.5479 50.8828C19.7777 51.7292 18.7324 52.1523 17.4121 52.1523C16.0918 52.1523 15.0465 51.7292 14.2764 50.8828C13.5062 50.0322 13.1211 48.8791 13.1211 47.4233C13.1211 45.9676 13.5062 44.8145 14.2764 43.9639C15.0465 43.1133 16.0918 42.688 17.4121 42.688ZM17.4121 43.9385C16.5404 43.9385 15.8485 44.2516 15.3364 44.8779C14.8286 45.5042 14.5747 46.3527 14.5747 47.4233C14.5747 48.4897 14.8286 49.3361 15.3364 49.9624C15.8485 50.5887 16.5404 50.9019 17.4121 50.9019C18.2796 50.9019 18.9673 50.5887 19.4751 49.9624C19.9871 49.3361 20.2432 48.4897 20.2432 47.4233C20.2432 46.3527 19.9871 45.5042 19.4751 44.8779C18.9673 44.2516 18.2796 43.9385 17.4121 43.9385ZM26.9272 52.1523C25.6408 52.1523 24.6188 51.7271 23.8613 50.8765C23.1081 50.0259 22.7314 48.8727 22.7314 47.417C22.7314 45.9697 23.1102 44.8208 23.8677 43.9702C24.6252 43.1154 25.645 42.688 26.9272 42.688C27.9683 42.688 28.8464 42.9821 29.5615 43.5703C30.2767 44.1543 30.6935 44.9224 30.812 45.8745H29.4028C29.2759 45.2863 28.986 44.8166 28.5332 44.4653C28.0846 44.1099 27.5493 43.9321 26.9272 43.9321C26.0936 43.9321 25.4271 44.2495 24.9277 44.8843C24.4326 45.5148 24.1851 46.359 24.1851 47.417C24.1851 48.4876 24.4326 49.3382 24.9277 49.9688C25.4229 50.5951 26.0915 50.9082 26.9336 50.9082C27.5684 50.9082 28.1016 50.7537 28.5332 50.4448C28.9691 50.1359 29.259 49.7043 29.4028 49.1499H30.8184C30.6449 50.0978 30.2153 50.8363 29.5298 51.3652C28.8485 51.89 27.981 52.1523 26.9272 52.1523ZM31.1548 52L34.1953 47.4106V47.3662L31.1865 42.8403H32.8813L35.1411 46.3823H35.1919L37.4771 42.8403H39.083L35.979 47.417V47.4551L39.0259 52H37.3628L35.084 48.5088H35.0396L32.729 52H31.1548Z" fill="white"/>
</svg>
