<svg viewBox="0 0 43 56" fill="none" xmlns="http://www.w3.org/2000/svg">
<path d="M30.5 0H1.5C0.7 0 0 0.7 0 1.9V55C0 55.3 0.7 56 1.5 56H41.5C42.3 56 43 55.3 43 55V13C43 12.3 42.9 12.1 42.7 11.9L31.1 0.3C30.9 0.1 30.7 0 30.5 0Z" fill="#E9E9E0"/>
<path d="M41.5 56H1.5C0.7 56 0 55.3 0 54.5V39H43V54.5C43 55.3 42.3 56 41.5 56Z" fill="#FF5364"/>
<path d="M18 28C17.8 28 17.7 28 17.5 27.9C17.2 27.7 17 27.4 17 27V13C17 12.6 17.2 12.3 17.5 12.1C17.8 11.9 18.2 11.9 18.5 12.1L29.5 19.1C29.8 19.3 30 19.6 30 19.9C30 20.2 29.8 20.6 29.5 20.7L18.5 27.7C18.4 27.9 18.2 28 18 28ZM19 14.8V25.2L27.1 20L19 14.8Z" fill="#C8BDB8"/>
<path d="M22 35C13.7 35 7 28.3 7 20C7 11.7 13.7 5 22 5C30.3 5 37 11.7 37 20C37 28.3 30.3 35 22 35ZM22 7C14.8 7 9 12.8 9 20C9 27.2 14.8 33 22 33C29.2 33 35 27.2 35 20C35 12.8 29.2 7 22 7Z" fill="#C8BDB8"/>
<path d="M31 0.200012V12H42.8L31 0.200012Z" fill="#D9D7CA"/>
<path d="M20.5605 48.1914C20.5605 49.4313 20.2114 50.4025 19.5132 51.105C18.8192 51.8032 17.8522 52.1523 16.6123 52.1523C15.3005 52.1523 14.2594 51.7249 13.4893 50.8701C12.7233 50.0111 12.3403 48.8473 12.3403 47.3789C12.3403 45.9359 12.7212 44.7933 13.4829 43.9512C14.2489 43.109 15.2856 42.688 16.5933 42.688C17.6131 42.688 18.4764 42.9652 19.1831 43.5195C19.894 44.0739 20.3299 44.8081 20.4907 45.7222H19.0308C18.8615 45.1551 18.5632 44.715 18.1357 44.4019C17.7083 44.0887 17.1963 43.9321 16.5996 43.9321C15.7236 43.9321 15.036 44.2368 14.5366 44.8462C14.0415 45.4513 13.7939 46.2913 13.7939 47.3662C13.7939 48.4622 14.0479 49.3276 14.5557 49.9624C15.0635 50.5929 15.7533 50.9082 16.625 50.9082C17.3656 50.9082 17.9707 50.6924 18.4404 50.2607C18.9102 49.8249 19.1493 49.2599 19.1577 48.5659V48.4072H16.79V47.2583H20.5605V48.1914ZM23.3726 52H21.9507V42.8403H23.3726V52ZM26.4829 52H25.061V42.8403H30.7803V44.0654H26.4829V46.9663H30.4185V48.166H26.4829V52Z" fill="white"/>
</svg>
