<svg viewBox="0 0 43 56" fill="none" xmlns="http://www.w3.org/2000/svg">
<path d="M30.485 0H1.463C0.655 0 0 0.655 0 1.926V55C0 55.345 0.655 56 1.463 56H41.537C42.345 56 43 55.345 43 55V12.978C43 12.282 42.907 12.058 42.743 11.893L31.107 0.257C30.942 0.093 30.718 0 30.485 0Z" fill="#E9E9E0"/>
<path d="M31 0.151001V12H42.849L31 0.151001Z" fill="#D9D7CA"/>
<path d="M12.431 19C14.9544 19 17 16.9544 17 14.431C17 11.9076 14.9544 9.862 12.431 9.862C9.90761 9.862 7.862 11.9076 7.862 14.431C7.862 16.9544 9.90761 19 12.431 19Z" fill="#F3D55B"/>
<path d="M0 39H11H43V28L33 18.5L22.5 30L17.017 24.517L0 39Z" fill="#26B99A"/>
<path d="M41.537 56H1.463C0.655 56 0 55.345 0 54.537V39H43V54.537C43 55.345 42.345 56 41.537 56Z" fill="#14A085"/>
<path d="M9.80762 49.6514H11.2041C11.2126 50.0322 11.3416 50.3411 11.5913 50.5781C11.8452 50.8151 12.1711 50.9336 12.5688 50.9336C13.0343 50.9336 13.3898 50.7982 13.6353 50.5273C13.8849 50.2523 14.0098 49.8524 14.0098 49.3276V42.8403H15.4316V49.334C15.4316 50.2396 15.1799 50.9442 14.6763 51.4478C14.1727 51.9513 13.4744 52.2031 12.5815 52.2031C11.7563 52.2031 11.0877 51.9683 10.5757 51.4985C10.0636 51.0288 9.80762 50.4131 9.80762 49.6514ZM17.1392 42.8403H20.7256C21.6143 42.8403 22.34 43.1196 22.9028 43.6782C23.4657 44.2368 23.7471 44.9604 23.7471 45.8491C23.7471 46.742 23.4614 47.4699 22.8901 48.0327C22.3188 48.5913 21.5825 48.8706 20.6812 48.8706H18.561V52H17.1392V42.8403ZM18.561 44.04V47.6772H20.3511C20.9689 47.6772 21.4471 47.5186 21.7856 47.2012C22.1242 46.8796 22.2935 46.431 22.2935 45.8555C22.2935 45.2757 22.1242 44.8293 21.7856 44.5161C21.4471 44.1987 20.9689 44.04 20.3511 44.04H18.561ZM32.8877 48.1914C32.8877 49.4313 32.5386 50.4025 31.8403 51.105C31.1463 51.8032 30.1794 52.1523 28.9395 52.1523C27.6276 52.1523 26.5866 51.7249 25.8164 50.8701C25.0505 50.0111 24.6675 48.8473 24.6675 47.3789C24.6675 45.9359 25.0483 44.7933 25.8101 43.9512C26.576 43.109 27.6128 42.688 28.9204 42.688C29.9403 42.688 30.8035 42.9652 31.5103 43.5195C32.2212 44.0739 32.6571 44.8081 32.8179 45.7222H31.3579C31.1886 45.1551 30.8903 44.715 30.4629 44.4019C30.0355 44.0887 29.5234 43.9321 28.9268 43.9321C28.0508 43.9321 27.3631 44.2368 26.8638 44.8462C26.3687 45.4513 26.1211 46.2913 26.1211 47.3662C26.1211 48.4622 26.375 49.3276 26.8828 49.9624C27.3906 50.5929 28.0804 50.9082 28.9521 50.9082C29.6927 50.9082 30.2979 50.6924 30.7676 50.2607C31.2373 49.8249 31.4764 49.2599 31.4849 48.5659V48.4072H29.1172V47.2583H32.8877V48.1914Z" fill="white"/>
</svg>
