<svg viewBox="0 0 43 56" fill="none" xmlns="http://www.w3.org/2000/svg">
<path d="M30.5 0H1.5C0.7 0 0 0.7 0 1.9V55C0 55.3 0.7 56 1.5 56H41.5C42.3 56 43 55.3 43 55V13C43 12.3 42.9 12.1 42.7 11.9L31.1 0.3C30.9 0.1 30.7 0 30.5 0Z" fill="#E9E9E0"/>
<path d="M41.5 56H1.5C0.7 56 0 55.3 0 54.5V39H43V54.5C43 55.3 42.3 56 41.5 56Z" fill="#3C55D3"/>
<path d="M18 28C17.8 28 17.7 28 17.5 27.9C17.2 27.7 17 27.4 17 27V13C17 12.6 17.2 12.3 17.5 12.1C17.8 11.9 18.2 11.9 18.5 12.1L29.5 19.1C29.8 19.3 30 19.6 30 19.9C30 20.2 29.8 20.6 29.5 20.7L18.5 27.7C18.4 27.9 18.2 28 18 28ZM19 14.8V25.2L27.1 20L19 14.8Z" fill="#C8BDB8"/>
<path d="M22 35C13.7 35 7 28.3 7 20C7 11.7 13.7 5 22 5C30.3 5 37 11.7 37 20C37 28.3 30.3 35 22 35ZM22 7C14.8 7 9 12.8 9 20C9 27.2 14.8 33 22 33C29.2 33 35 27.2 35 20C35 12.8 29.2 7 22 7Z" fill="#C8BDB8"/>
<path d="M31 0.200012V12H42.8L31 0.200012Z" fill="#D9D7CA"/>
<path d="M17.2725 42.8403V52H15.9712V45.2588H15.9268L13.1655 51.9302H12.1118L9.34424 45.2588H9.2998V52H8.00488V42.8403H9.64893L12.6133 50.0703H12.6641L15.6221 42.8403H17.2725ZM22.9219 42.688C24.238 42.688 25.2811 43.1133 26.0513 43.9639C26.8257 44.8145 27.2129 45.9676 27.2129 47.4233C27.2129 48.8791 26.8278 50.0322 26.0576 50.8828C25.2874 51.7292 24.2422 52.1523 22.9219 52.1523C21.6016 52.1523 20.5563 51.7292 19.7861 50.8828C19.016 50.0322 18.6309 48.8791 18.6309 47.4233C18.6309 45.9676 19.016 44.8145 19.7861 43.9639C20.5563 43.1133 21.6016 42.688 22.9219 42.688ZM22.9219 43.9385C22.0501 43.9385 21.3582 44.2516 20.8462 44.8779C20.3384 45.5042 20.0845 46.3527 20.0845 47.4233C20.0845 48.4897 20.3384 49.3361 20.8462 49.9624C21.3582 50.5887 22.0501 50.9019 22.9219 50.9019C23.7894 50.9019 24.4771 50.5887 24.9849 49.9624C25.4969 49.3361 25.7529 48.4897 25.7529 47.4233C25.7529 46.3527 25.4969 45.5042 24.9849 44.8779C24.4771 44.2516 23.7894 43.9385 22.9219 43.9385ZM32.3989 52H30.8438L27.5747 42.8403H29.1172L31.6118 50.4004H31.6499L34.1509 42.8403H35.668L32.3989 52Z" fill="white"/>
</svg>
