<svg viewBox="0 0 43 56" fill="none" xmlns="http://www.w3.org/2000/svg">
<path d="M30.485 0H1.463C0.655 0 0 0.655 0 1.926V55C0 55.345 0.655 56 1.463 56H41.537C42.345 56 43 55.345 43 55V12.978C43 12.282 42.907 12.058 42.743 11.893L31.107 0.257C30.942 0.093 30.718 0 30.485 0Z" fill="#E9E9E0"/>
<path d="M31 0.151001V12H42.849L31 0.151001Z" fill="#D9D7CA"/>
<path d="M41.537 56H1.463C0.655 56 0 55.345 0 54.537V39H43V54.537C43 55.345 42.345 56 41.537 56Z" fill="#7D6599"/>
<path d="M29.17 14.986C28.603 14.19 27.87 13.443 26.862 12.635C22.948 9.504 22.105 6.358 22 5.897V5C22 4.447 21.553 4 21 4C20.447 4 20 4.447 20 5V6V14.359V23.412H16.294C12.412 23.412 10 25.373 10 28.529C10 31.995 12.24 34.235 15.706 34.235C19.177 34.235 22 31.412 22 27.941V16.468L22.298 16.711C22.638 17.047 23.159 17.431 23.819 17.916C26.137 19.625 30.019 22.483 29.043 25.709C29.014 25.807 29 25.904 29 26C29 26.43 29.278 26.826 29.71 26.957C29.807 26.986 29.904 27 30 27C30.43 27 30.826 26.722 30.957 26.29C32.584 20.915 30.535 16.9 29.17 14.986ZM20 27.941C20 30.309 18.074 32.235 15.706 32.235C13.351 32.235 12 30.884 12 28.529C12 25.953 14.335 25.412 16.294 25.412H20V27.941ZM25.005 16.308C24.434 15.886 23.94 15.523 23.634 15.227L22 13.887V10.414C22.827 11.588 23.987 12.897 25.612 14.197C26.47 14.885 27.084 15.505 27.541 16.147C28.257 17.15 28.972 18.486 29.329 20.125C28.002 18.515 26.245 17.221 25.005 16.308Z" fill="#C8BDB8"/>
<path d="M18.269 42.8403V52H16.9678V45.2588H16.9233L14.1621 51.9302H13.1084L10.3408 45.2588H10.2964V52H9.00146V42.8403H10.6455L13.6099 50.0703H13.6606L16.6187 42.8403H18.269ZM19.9575 42.8403H23.5439C24.4326 42.8403 25.1584 43.1196 25.7212 43.6782C26.284 44.2368 26.5654 44.9604 26.5654 45.8491C26.5654 46.742 26.2798 47.4699 25.7085 48.0327C25.1372 48.5913 24.4009 48.8706 23.4995 48.8706H21.3794V52H19.9575V42.8403ZM21.3794 44.04V47.6772H23.1694C23.7873 47.6772 24.2655 47.5186 24.604 47.2012C24.9425 46.8796 25.1118 46.431 25.1118 45.8555C25.1118 45.2757 24.9425 44.8293 24.604 44.5161C24.2655 44.1987 23.7873 44.04 23.1694 44.04H21.3794ZM29.6758 47.855V46.7378H30.7803C31.2712 46.7378 31.6711 46.5981 31.98 46.3188C32.2931 46.0396 32.4497 45.6841 32.4497 45.2524C32.4497 44.8166 32.3037 44.4717 32.0117 44.2178C31.724 43.9639 31.3135 43.8369 30.7803 43.8369C30.2852 43.8369 29.8831 43.9702 29.5742 44.2368C29.2653 44.4992 29.0897 44.8568 29.0474 45.3096H27.708C27.763 44.5055 28.0719 43.8644 28.6348 43.3862C29.2018 42.908 29.9382 42.6689 30.8438 42.6689C31.7155 42.6689 32.4328 42.8932 32.9956 43.3418C33.5584 43.7861 33.8398 44.3595 33.8398 45.062C33.8398 45.6291 33.6685 46.1073 33.3257 46.4966C32.9829 46.8817 32.5259 47.125 31.9546 47.2266V47.252C32.6486 47.2985 33.1987 47.5207 33.605 47.9185C34.0155 48.3162 34.2207 48.8346 34.2207 49.4736C34.2207 50.265 33.9012 50.9124 33.2622 51.416C32.6232 51.9196 31.8213 52.1714 30.8564 52.1714C29.8789 52.1714 29.0897 51.9281 28.4888 51.4414C27.8921 50.9505 27.5705 50.3052 27.5239 49.5054H28.8887C28.9352 49.9497 29.132 50.3073 29.479 50.5781C29.8302 50.849 30.2894 50.9844 30.8564 50.9844C31.415 50.9844 31.8742 50.8426 32.2339 50.5591C32.5936 50.2713 32.7734 49.9032 32.7734 49.4546C32.7734 48.9595 32.5978 48.5701 32.2466 48.2866C31.8996 47.9989 31.4235 47.855 30.8184 47.855H29.6758Z" fill="white"/>
</svg>
