<svg viewBox="0 0 43 56" fill="none" xmlns="http://www.w3.org/2000/svg">
<path d="M30.485 0H1.463C0.655 0 0 0.655 0 1.926V55C0 55.345 0.655 56 1.463 56H41.537C42.345 56 43 55.345 43 55V12.978C43 12.282 42.907 12.058 42.743 11.893L31.107 0.257C30.942 0.093 30.718 0 30.485 0Z" fill="#E9E9E0"/>
<path d="M41.537 56H1.463C0.655 56 0 55.345 0 54.537V39H43V54.537C43 55.345 42.345 56 41.537 56Z" fill="#FF5364"/>
<path d="M18 28C17.834 28 17.669 27.959 17.519 27.877C17.199 27.701 17 27.365 17 27V13C17 12.635 17.199 12.299 17.519 12.123C17.84 11.948 18.229 11.961 18.538 12.156L29.538 19.156C29.825 19.34 30 19.658 30 20C30 20.342 29.825 20.66 29.537 20.844L18.537 27.844C18.374 27.947 18.187 28 18 28ZM19 14.821V25.178L27.137 20L19 14.821Z" fill="#C8BDB8"/>
<path d="M22 35C13.729 35 7 28.271 7 20C7 11.729 13.729 5 22 5C30.271 5 37 11.729 37 20C37 28.271 30.271 35 22 35ZM22 7C14.832 7 9 12.832 9 20C9 27.168 14.832 33 22 33C29.168 33 35 27.168 35 20C35 12.832 29.168 7 22 7Z" fill="#C8BDB8"/>
<path d="M31 0.151001V12H42.849L31 0.151001Z" fill="#D9D7CA"/>
<path d="M18.1865 42.8403V52H16.8853V45.2588H16.8408L14.0796 51.9302H13.0259L10.2583 45.2588H10.2139V52H8.91895V42.8403H10.563L13.5273 50.0703H13.5781L16.5361 42.8403H18.1865ZM19.875 42.8403H23.4614C24.3501 42.8403 25.0758 43.1196 25.6387 43.6782C26.2015 44.2368 26.4829 44.9604 26.4829 45.8491C26.4829 46.742 26.1973 47.4699 25.626 48.0327C25.0547 48.5913 24.3184 48.8706 23.417 48.8706H21.2969V52H19.875V42.8403ZM21.2969 44.04V47.6772H23.0869C23.7048 47.6772 24.1829 47.5186 24.5215 47.2012C24.86 46.8796 25.0293 46.431 25.0293 45.8555C25.0293 45.2757 24.86 44.8293 24.5215 44.5161C24.1829 44.1987 23.7048 44.04 23.0869 44.04H21.2969ZM31.9165 52V50.1909H27.3335V48.9468C28.0698 47.5588 29.3669 45.5233 31.2246 42.8403H33.2812V48.9976H34.5381V50.1909H33.2812V52H31.9165ZM28.6602 48.9849V49.0166H31.9292V43.9385H31.9038C30.3888 46.1263 29.3076 47.8084 28.6602 48.9849Z" fill="white"/>
</svg>
