<svg viewBox="0 0 43 56" fill="none" xmlns="http://www.w3.org/2000/svg">
<g clip-path="url(#clip0)">
<path d="M30.5 0H1.5C0.66 0 0 0.65 0 1.93V55C0.10925 55.3058 0.314183 55.5683 0.584392 55.7484C0.8546 55.9286 1.17568 56.0168 1.5 56H41.5C41.8176 56.0081 42.1297 55.9158 42.3918 55.7363C42.654 55.5567 42.8528 55.2991 42.96 55V13C42.96 12.3 42.87 12.08 42.7 11.91L31.11 0.26C30.9483 0.0971101 30.7295 0.00381273 30.5 0V0Z" fill="#E9E9E0"/>
<path d="M31 0.149994V12H42.85L31 0.149994Z" fill="#D9D7CA"/>
<path d="M13.01 33.32C12.6491 33.3252 12.2969 33.209 12.01 32.99C11.637 32.7547 11.3361 32.4211 11.1403 32.0259C10.9445 31.6308 10.8613 31.1893 10.9 30.75C11.08 29.12 13.09 27.42 16.9 25.68C18.4658 22.2106 19.7337 18.6143 20.69 14.93C19.69 12.76 18.69 9.92999 19.43 8.28999C19.5148 8.01494 19.6604 7.76249 19.856 7.55131C20.0516 7.34013 20.2922 7.17564 20.56 7.06999C20.8866 6.97896 21.2217 6.92198 21.56 6.89999C22.06 6.89999 22.51 7.54999 22.82 7.89999C23.13 8.24999 23.82 9.06999 22.45 14.7C23.7773 17.4499 25.4913 19.9958 27.54 22.26C28.6602 22.0745 29.7946 21.9875 30.93 22C32.5 22 33.44 22.36 33.83 23.12C33.9826 23.4788 34.0271 23.8745 33.9578 24.2583C33.8885 24.642 33.7085 24.9972 33.44 25.28C33.1971 25.6463 32.8672 25.9468 32.4798 26.1544C32.0924 26.3621 31.6595 26.4705 31.22 26.47C30 26.47 28.59 25.7 27.01 24.19C23.9828 24.8392 21.0256 25.7803 18.18 27C17.51 28.4823 16.7137 29.9042 15.8 31.25C14.77 32.65 13.89 33.32 13.01 33.32ZM15.67 28.19C13.53 29.39 12.67 30.38 12.6 30.93C12.6 31.02 12.6 31.26 13.03 31.62C13.18 31.59 14.06 31.19 15.68 28.2L15.67 28.19ZM29.31 23.75C30.12 24.38 30.31 24.69 30.86 24.69C31.0816 24.7104 31.305 24.6815 31.5142 24.6054C31.7234 24.5294 31.9132 24.408 32.07 24.25C32.1675 24.1225 32.2451 23.9809 32.3 23.83C32.18 23.76 32.01 23.63 31.13 23.63C30.5212 23.6354 29.9134 23.6788 29.31 23.76V23.75ZM21.84 17.17C21.0925 19.7381 20.2011 22.2621 19.17 24.73C21.2887 23.9166 23.4604 23.2484 25.67 22.73C24.2132 21.0074 22.9303 19.145 21.84 17.17ZM21.23 8.70999C20.8443 9.16352 20.641 9.74421 20.6594 10.3393C20.6779 10.9343 20.9169 11.5013 21.33 11.93C22.28 9.80999 21.28 8.69999 21.24 8.70999H21.23Z" fill="#CC4B4C"/>
<path d="M41.5 56H1.5C1.30493 56.0053 1.11077 55.9715 0.92899 55.9006C0.747212 55.8296 0.581507 55.7229 0.441668 55.5868C0.301829 55.4507 0.190695 55.2879 0.114835 55.1081C0.0389744 54.9283 -7.31493e-05 54.7351 1.02873e-07 54.54V39H43V54.54C43.0001 54.7351 42.961 54.9283 42.8852 55.1081C42.8093 55.2879 42.6982 55.4507 42.5583 55.5868C42.4185 55.7229 42.2528 55.8296 42.071 55.9006C41.8892 55.9715 41.6951 56.0053 41.5 56Z" fill="#CC4B4C"/>
</g>
<path d="M10.4487 42.8403H14.0352C14.9238 42.8403 15.6496 43.1196 16.2124 43.6782C16.7752 44.2368 17.0566 44.9604 17.0566 45.8491C17.0566 46.742 16.771 47.4699 16.1997 48.0327C15.6284 48.5913 14.8921 48.8706 13.9907 48.8706H11.8706V52H10.4487V42.8403ZM11.8706 44.04V47.6772H13.6606C14.2785 47.6772 14.7567 47.5186 15.0952 47.2012C15.4338 46.8796 15.603 46.431 15.603 45.8555C15.603 45.2757 15.4338 44.8293 15.0952 44.5161C14.7567 44.1987 14.2785 44.04 13.6606 44.04H11.8706ZM18.3071 42.8403H21.5889C22.9557 42.8403 24.02 43.2402 24.7817 44.04C25.5435 44.8398 25.9243 45.9613 25.9243 47.4043C25.9243 48.8516 25.5435 49.9793 24.7817 50.7876C24.02 51.5959 22.9557 52 21.5889 52H18.3071V42.8403ZM19.729 44.0654V50.7686H21.4556C22.4289 50.7686 23.1758 50.4808 23.6963 49.9053C24.2168 49.3255 24.4771 48.4961 24.4771 47.417C24.4771 46.3379 24.2168 45.5106 23.6963 44.9351C23.1758 44.3553 22.4289 44.0654 21.4556 44.0654H19.729ZM28.7046 52H27.2827V42.8403H33.002V44.0654H28.7046V46.9663H32.6401V48.166H28.7046V52Z" fill="white"/>
<defs>
<clipPath id="clip0">
<rect width="43" height="56" fill="white"/>
</clipPath>
</defs>
</svg>
