<svg viewBox="0 0 43 56" fill="none" xmlns="http://www.w3.org/2000/svg">
<path d="M30.485 0H1.463C0.655 0 0 0.655 0 1.926V55C0 55.345 0.655 56 1.463 56H41.537C42.345 56 43 55.345 43 55V12.978C43 12.282 42.907 12.058 42.743 11.893L31.107 0.257C30.942 0.093 30.718 0 30.485 0Z" fill="#E9E9E0"/>
<path d="M41.537 56H1.463C0.655 56 0 55.345 0 54.537V39H43V54.537C43 55.345 42.345 56 41.537 56Z" fill="#659C35"/>
<path d="M31 0.151001V12H42.849L31 0.151001Z" fill="#D9D7CA"/>
<path d="M12.431 19C14.9544 19 17 16.9544 17 14.431C17 11.9076 14.9544 9.862 12.431 9.862C9.90761 9.862 7.862 11.9076 7.862 14.431C7.862 16.9544 9.90761 19 12.431 19Z" fill="#F3D55B"/>
<path d="M0 39H11H43V28L33 18.5L22.5 30L17.017 24.517L0 39Z" fill="#88C057"/>
<path d="M10.6593 48.3018V52H8.9298V42.0469H12.7374C13.8494 42.0469 14.7312 42.3363 15.3829 42.915C16.0392 43.4938 16.3673 44.2594 16.3673 45.2119C16.3673 46.1872 16.046 46.946 15.4034 47.4883C14.7654 48.0306 13.8699 48.3018 12.7169 48.3018H10.6593ZM10.6593 46.9141H12.7374C13.3527 46.9141 13.8221 46.7705 14.1456 46.4834C14.4692 46.1917 14.631 45.7725 14.631 45.2256C14.631 44.6878 14.4669 44.2594 14.1388 43.9404C13.8107 43.6169 13.3595 43.4505 12.7853 43.4414H10.6593V46.9141ZM25.3604 52H23.6309L19.1944 44.9385V52H17.4649V42.0469H19.1944L23.6446 49.1357V42.0469H25.3604V52ZM34.6132 50.708C34.2532 51.1774 33.7542 51.5329 33.1162 51.7744C32.4782 52.016 31.7535 52.1367 30.9423 52.1367C30.1084 52.1367 29.3701 51.9476 28.7275 51.5693C28.0849 51.1911 27.5882 50.651 27.2373 49.9492C26.8909 49.2428 26.7109 48.4202 26.6972 47.4814V46.7021C26.6972 45.1982 27.0573 44.0247 27.7773 43.1816C28.4974 42.334 29.5022 41.9102 30.792 41.9102C31.8994 41.9102 32.7789 42.1836 33.4306 42.7305C34.0823 43.2773 34.4742 44.0658 34.6064 45.0957H32.9111C32.7197 43.8971 32.0247 43.2979 30.8261 43.2979C30.0514 43.2979 29.4612 43.5781 29.0556 44.1387C28.6546 44.6947 28.4472 45.5127 28.4336 46.5928V47.3584C28.4336 48.4339 28.6591 49.2702 29.1103 49.8672C29.566 50.4596 30.1972 50.7559 31.0039 50.7559C31.888 50.7559 32.5169 50.5553 32.8906 50.1543V48.2061H30.8398V46.8936H34.6132V50.708Z" fill="white"/>
</svg>
