<svg viewBox="0 0 43 56" fill="none" xmlns="http://www.w3.org/2000/svg">
<path d="M30.485 0H1.463C0.655 0 0 0.655 0 1.926V55C0 55.345 0.655 56 1.463 56H41.537C42.345 56 43 55.345 43 55V12.978C43 12.282 42.907 12.058 42.743 11.893L31.107 0.257C30.942 0.093 30.718 0 30.485 0Z" fill="#E9E9E0"/>
<path d="M31 0.151001V12H42.849L31 0.151001Z" fill="#D9D7CA"/>
<path d="M41.537 56H1.463C0.655 56 0 55.345 0 54.537V39H43V54.537C43 55.345 42.345 56 41.537 56Z" fill="#4495A7"/>
<path d="M29.17 14.986C28.603 14.19 27.87 13.443 26.862 12.635C22.948 9.504 22.105 6.358 22 5.897V5C22 4.447 21.553 4 21 4C20.447 4 20 4.447 20 5V6V14.359V23.412H16.294C12.412 23.412 10 25.373 10 28.529C10 31.995 12.24 34.235 15.706 34.235C19.177 34.235 22 31.412 22 27.941V16.468L22.298 16.711C22.638 17.047 23.159 17.431 23.819 17.916C26.137 19.625 30.019 22.483 29.043 25.709C29.014 25.807 29 25.904 29 26C29 26.43 29.278 26.826 29.71 26.957C29.807 26.986 29.904 27 30 27C30.43 27 30.826 26.722 30.957 26.29C32.584 20.915 30.535 16.9 29.17 14.986ZM20 27.941C20 30.309 18.074 32.235 15.706 32.235C13.351 32.235 12 30.884 12 28.529C12 25.953 14.335 25.412 16.294 25.412H20V27.941ZM25.005 16.308C24.434 15.886 23.94 15.523 23.634 15.227L22 13.887V10.414C22.827 11.588 23.987 12.897 25.612 14.197C26.47 14.885 27.084 15.505 27.541 16.147C28.257 17.15 28.972 18.486 29.329 20.125C28.002 18.515 26.245 17.221 25.005 16.308Z" fill="#C8BDB8"/>
<path d="M13.8701 45.0938L11.896 52H10.5503L8.08105 42.8403H9.56006L11.2549 50.0132H11.3057L13.2417 42.8403H14.562L16.5044 50.0132H16.5552L18.25 42.8403H19.729L17.2534 52H15.9141L13.9336 45.0938H13.8701ZM25.9878 52L25.1499 49.5244H21.6587L20.8208 52H19.3418L22.6489 42.8403H24.1851L27.4922 52H25.9878ZM23.3853 44.3638L22.0205 48.3818H24.7881L23.4233 44.3638H23.3853ZM31.7578 52H30.2026L26.9336 42.8403H28.4761L30.9707 50.4004H31.0088L33.5098 42.8403H35.0269L31.7578 52Z" fill="white"/>
</svg>
