<svg viewBox="0 0 43 56" fill="none" xmlns="http://www.w3.org/2000/svg">
<path d="M30.485 0H1.463C0.655 0 0 0.655 0 1.926V55C0 55.345 0.655 56 1.463 56H41.537C42.345 56 43 55.345 43 55V12.978C43 12.282 42.907 12.058 42.743 11.893L31.107 0.257C30.942 0.093 30.718 0 30.485 0Z" fill="#E9E9E0"/>
<path d="M31 0.150999V12H42.849L31 0.150999Z" fill="#D9D7CA"/>
<path d="M41.537 56H1.463C0.655 56 0 55.345 0 54.537V39H43V54.537C43 55.345 42.345 56 41.537 56Z" fill="#6FB982"/>
<path d="M17 16V12H5V16V18V20V22V24V26V28V30V34H15H17H38V30V28V26V24V22V20V16H17ZM7 14H15V16H7V14ZM7 18H15V20H7V18ZM7 22H15V24H7V22ZM7 26H15V28H7V26ZM15 32H7V30H15V32ZM36 32H17V30H36V32ZM36 28H17V26H36V28ZM36 24H17V22H36V24ZM17 20V18H36V20H17Z" fill="#C8BDB8"/>
<path d="M10.1313 52L13.1719 47.4106V47.3662L10.1631 42.8403H11.8579L14.1177 46.3823H14.1685L16.4536 42.8403H18.0596L14.9556 47.417V47.4551L18.0024 52H16.3394L14.0605 48.5088H14.0161L11.7056 52H10.1313ZM24.877 50.7686V52H19.1895V42.8403H20.6113V50.7686H24.877ZM25.6895 49.4482H27.0923C27.1431 49.901 27.3695 50.265 27.7715 50.54C28.1735 50.8151 28.6771 50.9526 29.2822 50.9526C29.8577 50.9526 30.3317 50.8193 30.7041 50.5527C31.0807 50.2861 31.269 49.9476 31.269 49.5371C31.269 49.1816 31.1357 48.8918 30.8691 48.6675C30.6025 48.439 30.173 48.2528 29.5806 48.1089L28.3936 47.8232C27.5514 47.6201 26.9294 47.3175 26.5273 46.9155C26.1296 46.5135 25.9307 45.993 25.9307 45.354C25.9307 44.5669 26.2396 43.9258 26.8574 43.4307C27.4795 42.9355 28.2814 42.688 29.2632 42.688C30.228 42.688 31.0151 42.9355 31.6245 43.4307C32.2339 43.9215 32.5492 44.5627 32.5703 45.354H31.1865C31.1442 44.9012 30.9474 44.5436 30.5962 44.2812C30.2492 44.0189 29.7985 43.8877 29.2441 43.8877C28.694 43.8877 28.2454 44.0146 27.8984 44.2686C27.5557 44.5225 27.3843 44.8525 27.3843 45.2588C27.3843 45.5804 27.5133 45.8449 27.7715 46.0522C28.0296 46.2554 28.4549 46.431 29.0474 46.5791L30.0566 46.8267C30.9961 47.0467 31.6732 47.3577 32.0879 47.7598C32.5068 48.1576 32.7163 48.6929 32.7163 49.3657C32.7163 50.2205 32.3989 50.8997 31.7642 51.4033C31.1294 51.9027 30.2682 52.1523 29.1807 52.1523C28.1608 52.1523 27.3335 51.909 26.6987 51.4224C26.0682 50.9315 25.7318 50.2734 25.6895 49.4482Z" fill="white"/>
</svg>
