<svg viewBox="0 0 43 56" fill="none" xmlns="http://www.w3.org/2000/svg">
<path d="M30.485 0H1.463C0.655 0 0 0.655 0 1.926V55C0 55.345 0.655 56 1.463 56H41.537C42.345 56 43 55.345 43 55V12.978C43 12.282 42.907 12.058 42.743 11.893L31.107 0.257C30.942 0.093 30.718 0 30.485 0Z" fill="#E9E9E0"/>
<path d="M31 0.150999V12H42.849L31 0.150999Z" fill="#D9D7CA"/>
<path d="M41.537 56H1.463C0.655 56 0 55.345 0 54.537V39H43V54.537C43 55.345 42.345 56 41.537 56Z" fill="#6FB982"/>
<path d="M17 16V12H5V16V18V20V22V24V26V28V30V34H15H17H38V30V28V26V24V22V20V16H17ZM7 14H15V16H7V14ZM7 18H15V20H7V18ZM7 22H15V24H7V22ZM7 26H15V28H7V26ZM15 32H7V30H15V32ZM36 32H17V30H36V32ZM36 28H17V26H36V28ZM36 24H17V22H36V24ZM17 20V18H36V20H17Z" fill="#C8BDB8"/>
<path d="M5.92285 52L8.96338 47.4106V47.3662L5.95459 42.8403H7.64941L9.90918 46.3823H9.95996L12.2451 42.8403H13.8511L10.7471 47.417V47.4551L13.7939 52H12.1309L9.85205 48.5088H9.80762L7.49707 52H5.92285ZM20.6685 50.7686V52H14.981V42.8403H16.4028V50.7686H20.6685ZM21.481 49.4482H22.8838C22.9346 49.901 23.161 50.265 23.563 50.54C23.965 50.8151 24.4686 50.9526 25.0737 50.9526C25.6493 50.9526 26.1232 50.8193 26.4956 50.5527C26.8722 50.2861 27.0605 49.9476 27.0605 49.5371C27.0605 49.1816 26.9272 48.8918 26.6606 48.6675C26.394 48.439 25.9645 48.2528 25.3721 48.1089L24.1851 47.8232C23.3429 47.6201 22.7209 47.3175 22.3188 46.9155C21.9211 46.5135 21.7222 45.993 21.7222 45.354C21.7222 44.5669 22.0311 43.9258 22.6489 43.4307C23.271 42.9355 24.0729 42.688 25.0547 42.688C26.0195 42.688 26.8066 42.9355 27.416 43.4307C28.0254 43.9215 28.3407 44.5627 28.3618 45.354H26.978C26.9357 44.9012 26.7389 44.5436 26.3877 44.2812C26.0407 44.0189 25.59 43.8877 25.0356 43.8877C24.4855 43.8877 24.0369 44.0146 23.6899 44.2686C23.3472 44.5225 23.1758 44.8525 23.1758 45.2588C23.1758 45.5804 23.3049 45.8449 23.563 46.0522C23.8211 46.2554 24.2464 46.431 24.8389 46.5791L25.8481 46.8267C26.7876 47.0467 27.4647 47.3577 27.8794 47.7598C28.2983 48.1576 28.5078 48.6929 28.5078 49.3657C28.5078 50.2205 28.1904 50.8997 27.5557 51.4033C26.9209 51.9027 26.0597 52.1523 24.9722 52.1523C23.9523 52.1523 23.125 51.909 22.4902 51.4224C21.8597 50.9315 21.5233 50.2734 21.481 49.4482ZM29.1426 52L32.1831 47.4106V47.3662L29.1743 42.8403H30.8691L33.1289 46.3823H33.1797L35.4648 42.8403H37.0708L33.9668 47.417V47.4551L37.0137 52H35.3506L33.0718 48.5088H33.0273L30.7168 52H29.1426Z" fill="white"/>
</svg>
