<svg width="43" height="56" viewBox="0 0 43 56" fill="none" xmlns="http://www.w3.org/2000/svg">
<g clip-path="url(#clip0)">
<path d="M30.5 0H1.5C0.7 0 0 0.7 0 1.9V55C0 55.3 0.7 56 1.5 56H41.6C42.4 56 43.1 55.3 43.1 55V13C43.1 12.3 43 12.1 42.8 11.9L31.1 0.3C30.9 0.1 30.7 0 30.5 0Z" fill="#E9E9E0"/>
<path d="M31 0.199951V12H42.8L31 0.199951Z" fill="#D9D7CA"/>
<path d="M41.5 56H1.5C0.7 56 0 55.3 0 54.5V39H43V54.5C43 55.3 42.3 56 41.5 56Z" fill="#556080"/>
<path d="M18.8 42.8999V44.1999L14 51.4999L13.7 51.6999H18.8V52.9999H12.1V51.6999L16.9 44.4999L17.2 44.2999H12.1V42.9999H18.8V42.8999Z" fill="white"/>
<path d="M22.8 52.9999H21.1V42.8999H22.8V52.9999Z" fill="white"/>
<path d="M26.9 52.9999H25.3V42.8999H28.2C28.6 42.8999 29.1 42.9999 29.5 43.0999C29.9 43.1999 30.3 43.3999 30.6 43.6999C30.9 43.9999 31.2 44.2999 31.4 44.6999C31.6 45.0999 31.7 45.4999 31.7 45.9999C31.7 46.4999 31.6 46.9999 31.4 47.3999C31.2 47.7999 31 48.1999 30.7 48.3999C30.4 48.6999 30 48.8999 29.6 49.0999C29.2 49.2999 28.7 49.2999 28.2 49.2999H27L26.9 52.9999ZM26.9 44.1999V48.1999H28.4C28.6 48.1999 28.8 48.1999 29 48.0999C29.2 47.9999 29.4 47.8999 29.5 47.7999C29.6 47.6999 29.8 47.3999 29.9 47.1999C30 46.9999 30.1 46.5999 30.1 46.1999C30.1 45.9999 30.1 45.7999 30 45.5999C30 45.3999 29.9 45.1999 29.7 44.9999C29.6 44.7999 29.4 44.5999 29.1 44.4999C28.8 44.3999 28.5 44.2999 28.1 44.2999L26.9 44.1999Z" fill="white"/>
<path d="M22 24V22H24V20H22V18H24V16H22V14H24V12H22V10H24V8H22V6H20V8H18V10H20V12H18V14H20V16H18V18H20V20H18V22H20V24H16V29C16 31.8 18.2 34 21 34C23.8 34 26 31.8 26 29V24H22ZM24 29C24 30.7 22.7 32 21 32C19.3 32 18 30.7 18 29V26H24V29Z" fill="#C8BDB8"/>
<path d="M20 30H22C22.6 30 23 29.6 23 29C23 28.4 22.6 28 22 28H20C19.4 28 19 28.4 19 29C19 29.6 19.4 30 20 30Z" fill="#C8BDB8"/>
</g>
<defs>
<clipPath id="clip0">
<rect width="43" height="56" fill="white"/>
</clipPath>
</defs>
</svg>
