<svg width="44" height="44" viewBox="0 0 44 44" fill="none" xmlns="http://www.w3.org/2000/svg">
<path d="M21.8078 18.6002L22.0071 18.6002L22.3374 18.6002C22.3709 18.6198 22.3993 18.634 22.4195 18.644C22.4219 18.6452 22.4242 18.6464 22.4264 18.6475C22.4408 18.6547 22.4497 18.6593 22.4547 18.662L29.5464 25.7538C29.7512 25.9585 29.7512 26.242 29.5464 26.4467C29.3417 26.6514 29.0583 26.6514 28.8536 26.4467L23.4536 21.0467L22.6 20.1931L22.6 21.4002L22.6 39.0002C22.6 39.0876 22.5513 39.2169 22.4339 39.3342C22.3166 39.4515 22.1874 39.5002 22.1 39.5002C22.0126 39.5002 21.8834 39.4515 21.7661 39.3342C21.6487 39.2169 21.6 39.0876 21.6 39.0002L21.6 21.4002L21.6 20.1931L20.7464 21.0467L15.3464 26.4467C15.1417 26.6514 14.8583 26.6514 14.6536 26.4467C14.4488 26.242 14.4488 25.9585 14.6536 25.7538L21.7536 18.6538C21.7753 18.6321 21.7923 18.6151 21.8078 18.6002Z" stroke="#91ADBB"/>
<path d="M16.1765 34.9846C16.7201 34.8871 17.0818 34.3674 16.9843 33.8237C16.8868 33.2801 16.3671 32.9185 15.8235 33.016L16.1765 34.9846ZM2 25.0003L1 25.0003L2 25.0003ZM10 16.0003V17.0003C10.5174 17.0003 10.9494 16.6056 10.9959 16.0903L10 16.0003ZM23 5.00027L22.9947 6.00026L23 5.00027ZM36 19.0003H35C35 19.5526 35.4477 20.0003 36 20.0003V19.0003ZM28.1414 33.0103C27.5947 32.9322 27.0882 33.3121 27.0101 33.8589C26.9319 34.4056 27.3118 34.9121 27.8586 34.9902L28.1414 33.0103ZM16 34.0003C15.8235 33.016 15.8238 33.0159 15.8241 33.0159C15.8241 33.0159 15.8243 33.0158 15.8244 33.0158C15.8245 33.0158 15.8243 33.0158 15.824 33.0159C15.8234 33.016 15.8219 33.0163 15.8196 33.0167C15.8149 33.0175 15.8071 33.0188 15.796 33.0206C15.7739 33.0243 15.7391 33.0299 15.6926 33.037C15.5994 33.0512 15.4592 33.0711 15.2787 33.0929C14.9173 33.1365 14.3966 33.1871 13.7702 33.2136C12.5102 33.2669 10.8576 33.2209 9.22571 32.8427C7.59103 32.4638 6.0454 31.768 4.91287 30.5744C3.80028 29.4017 2.99996 27.6584 3 25.0003L1 25.0003C0.999958 28.0976 1.9496 30.3569 3.462 31.9509C4.95445 33.5239 6.90883 34.3587 8.77417 34.791C10.6423 35.224 12.4897 35.2696 13.8548 35.2118C14.5409 35.1828 15.1139 35.1272 15.5182 35.0785C15.7205 35.0541 15.8811 35.0313 15.993 35.0143C16.049 35.0058 16.0928 34.9987 16.1237 34.9936C16.1391 34.991 16.1513 34.989 16.1601 34.9874C16.1646 34.9867 16.1682 34.986 16.1709 34.9856C16.1723 34.9853 16.1734 34.9851 16.1743 34.985C16.1748 34.9849 16.1754 34.9848 16.1756 34.9847C16.1761 34.9846 16.1765 34.9846 16 34.0003ZM3 25.0003C3.00006 20.8704 4.79742 18.9491 6.49031 17.9968C7.3695 17.5023 8.25846 17.2505 8.93431 17.1238C9.27018 17.0608 9.54749 17.0298 9.73635 17.0146C9.83061 17.0071 9.9023 17.0035 9.94763 17.0018C9.97028 17.0009 9.98629 17.0005 9.99519 17.0004C9.99964 17.0003 10.0023 17.0003 10.0031 17.0003C10.0035 17.0003 10.0035 17.0003 10.003 17.0003C10.0027 17.0003 10.0023 17.0003 10.0018 17.0003C10.0016 17.0003 10.0011 17.0003 10.001 17.0003C10.0005 17.0003 10 17.0003 10 16.0003C10 15.0003 9.99942 15.0003 9.99881 15.0003C9.99856 15.0003 9.99792 15.0003 9.99743 15.0003C9.99645 15.0003 9.99534 15.0003 9.99411 15.0003C9.99165 15.0003 9.98871 15.0003 9.98527 15.0003C9.9784 15.0004 9.96959 15.0005 9.95891 15.0007C9.93753 15.0011 9.90863 15.0018 9.87268 15.0032C9.80083 15.0059 9.70064 15.0111 9.57615 15.0211C9.32753 15.041 8.97984 15.0804 8.56572 15.158C7.74159 15.3126 6.63058 15.6232 5.50978 16.2537C3.2027 17.5514 1.00007 20.1302 1 25.0003L3 25.0003ZM10 16.0003C10.9959 16.0903 10.9959 16.0908 10.9959 16.0912C10.9958 16.0913 10.9958 16.0917 10.9958 16.0919C10.9958 16.0923 10.9957 16.0925 10.9957 16.0925C10.9957 16.0926 10.9958 16.092 10.9959 16.0908C10.9961 16.0883 10.9967 16.0833 10.9975 16.0758C10.9991 16.0608 11.0019 16.0358 11.0062 16.0016C11.0149 15.9331 11.0296 15.8277 11.0526 15.6906C11.0987 15.4162 11.1779 15.0168 11.3088 14.5346C11.5716 13.5666 12.037 12.2847 12.8444 11.0123C14.4295 8.51414 17.374 5.97057 22.9947 6.00026L23.0053 4.00029C16.626 3.96659 13.0705 6.92302 11.1556 9.94073C10.213 11.4262 9.67843 12.9063 9.37867 14.0107C9.22832 14.5646 9.13569 15.029 9.08021 15.3594C9.05245 15.5247 9.03391 15.6569 9.02207 15.7505C9.01615 15.7973 9.0119 15.8344 9.009 15.8613C9.00755 15.8747 9.00644 15.8855 9.00563 15.8937C9.00523 15.8978 9.0049 15.9013 9.00464 15.904C9.00451 15.9054 9.00439 15.9066 9.0043 15.9076C9.00425 15.9082 9.00419 15.9088 9.00417 15.9091C9.00411 15.9097 9.00406 15.9102 10 16.0003ZM22.9947 6.00026C26.0549 6.01642 28.2861 6.84419 29.9315 8.02838C31.5866 9.21958 32.7082 10.8148 33.4684 12.448C34.2296 14.0834 34.6151 15.7297 34.8087 16.976C34.9052 17.5967 34.9531 18.1117 34.9768 18.468C34.9887 18.646 34.9945 18.7838 34.9973 18.8749C34.9987 18.9204 34.9994 18.9542 34.9997 18.9754C34.9999 18.9859 34.9999 18.9934 35 18.9976C35 18.9997 35 19.001 35 19.0014C35 19.0016 35 19.0017 35 19.0015C35 19.0014 35 19.0011 35 19.001C35 19.0007 35 19.0003 36 19.0003C37 19.0003 37 18.9998 37 18.9992C37 18.9989 37 18.9983 37 18.9978C37 18.9968 37 18.9955 37 18.9941C37 18.9911 37 18.9874 36.9999 18.9828C36.9999 18.9736 36.9997 18.961 36.9995 18.9453C36.999 18.9137 36.9981 18.8693 36.9963 18.8127C36.9928 18.6997 36.9859 18.5381 36.9724 18.335C36.9453 17.9292 36.8917 17.3553 36.785 16.6689C36.5724 15.3009 36.1454 13.4601 35.2816 11.6041C34.4167 9.74585 33.1009 7.84534 31.0998 6.40509C29.0889 4.95785 26.4451 4.01845 23.0053 4.00029L22.9947 6.00026ZM36 19.0003C36 20.0003 35.9994 20.0003 35.9988 20.0003C35.9986 20.0003 35.998 20.0003 35.9977 20.0003C35.997 20.0003 35.9964 20.0003 35.9958 20.0003C35.9948 20.0003 35.9941 20.0002 35.9938 20.0002C35.9931 20.0002 35.9937 20.0002 35.9957 20.0003C35.9997 20.0004 36.0089 20.0006 36.023 20.0012C36.0512 20.0025 36.0988 20.0053 36.163 20.0114C36.2917 20.0236 36.4848 20.0491 36.7206 20.1015C37.1946 20.2068 37.8222 20.4169 38.4453 20.8323C39.6331 21.6242 41 23.2916 41 27.0003H43C43 22.709 41.3669 20.3764 39.5547 19.1682C38.6778 18.5836 37.8054 18.2937 37.1544 18.1491C36.8277 18.0765 36.552 18.0394 36.3526 18.0204C36.2527 18.0109 36.1714 18.0059 36.1118 18.0032C36.0819 18.0019 36.0575 18.0011 36.0387 18.0007C36.0293 18.0005 36.0214 18.0004 36.0149 18.0004C36.0117 18.0003 36.0088 18.0003 36.0063 18.0003C36.0051 18.0003 36.0039 18.0003 36.0029 18.0003C36.0024 18.0003 36.0016 18.0003 36.0014 18.0003C36.0007 18.0003 36 18.0003 36 19.0003ZM41 27.0003C41 28.9487 40.2608 30.2285 39.1778 31.1182C38.0523 32.0426 36.4928 32.5929 34.8242 32.8908C33.1685 33.1865 31.495 33.2182 30.2232 33.1728C29.5903 33.1502 29.064 33.1088 28.698 33.0733C28.5152 33.0556 28.3729 33.0394 28.2778 33.0278C28.2302 33.0221 28.1945 33.0174 28.1715 33.0144C28.16 33.0129 28.1517 33.0117 28.1466 33.011C28.1441 33.0107 28.1424 33.0105 28.1415 33.0103C28.1411 33.0103 28.1409 33.0102 28.1408 33.0102C28.1408 33.0102 28.141 33.0103 28.141 33.0103C28.1412 33.0103 28.1414 33.0103 28 34.0003C27.8586 34.9902 27.8589 34.9903 27.8594 34.9903C27.8596 34.9904 27.86 34.9904 27.8604 34.9905C27.8613 34.9906 27.8623 34.9908 27.8636 34.9909C27.8661 34.9913 27.8695 34.9918 27.8737 34.9923C27.8821 34.9935 27.8938 34.9951 27.9088 34.9971C27.9388 35.001 27.9817 35.0066 28.0367 35.0132C28.1466 35.0266 28.3051 35.0446 28.5051 35.064C28.9048 35.1027 29.4722 35.1472 30.1518 35.1715C31.5049 35.2198 33.3315 35.189 35.1758 34.8597C37.0072 34.5326 38.9477 33.8954 40.4472 32.6636C41.9892 31.397 43 29.5518 43 27.0003H41Z" fill="#91ADBB"/>
</svg>
